<svg width="50" height="44" viewBox="0 0 50 44" fill="none" xmlns="http://www.w3.org/2000/svg">
<rect x="1" y="1" width="48" height="42" fill="white" stroke="#333333" stroke-width="2"/>
<path d="M21 28C19.9 28 19 28.9 19 30C19 31.1 19.9 32 21 32C22.1 32 23 31.1 23 30C23 28.9 22.1 28 21 28ZM15 12V14H17L20.6 21.6L19.2 24C19.1 24.3 19 24.7 19 25C19 26.1 19.9 27 21 27H33V25H21.4C21.3 25 21.2 24.9 21.2 24.8V24.7L22.1 23H29.5C30.3 23 30.9 22.6 31.2 22L34.8 15.5C35 15.3 35 15.2 35 15C35 14.4 34.6 14 34 14H19.2L18.3 12H15ZM31 28C29.9 28 29 28.9 29 30C29 31.1 29.9 32 31 32C32.1 32 33 31.1 33 30C33 28.9 32.1 28 31 28Z" fill="black"/>
</svg>
