<svg width="16" height="16" viewBox="0 0 16 16" fill="none" xmlns="http://www.w3.org/2000/svg">
<path fill-rule="evenodd" clip-rule="evenodd" d="M2.07867 8.31137C1.974 8.11737 1.974 7.88204 2.07867 7.68804C3.34 5.35537 5.67 3.33337 8 3.33337C10.33 3.33337 12.66 5.35537 13.9213 7.68871C14.026 7.88271 14.026 8.11804 13.9213 8.31204C12.66 10.6447 10.33 12.6667 8 12.6667C5.67 12.6667 3.34 10.6447 2.07867 8.31137Z" stroke="#333333" stroke-opacity="0.5" stroke-linecap="round" stroke-linejoin="round"/>
<path d="M9.4142 6.58579C10.1952 7.36683 10.1952 8.63316 9.4142 9.41421C8.63315 10.1953 7.36682 10.1953 6.58577 9.41421C5.80472 8.63316 5.80472 7.36683 6.58577 6.58579C7.36682 5.80474 8.63315 5.80474 9.4142 6.58579" stroke="#333333" stroke-opacity="0.5" stroke-linecap="round" stroke-linejoin="round"/>
</svg>
