<svg width="50" height="44" viewBox="0 0 50 44" fill="none" xmlns="http://www.w3.org/2000/svg">
<rect x="1" y="1" width="48" height="42" fill="white" stroke="#333333" stroke-width="2"/>
<path d="M34.91 27.9421L34.8105 27.6421C34.5747 26.9412 33.8019 26.2102 33.092 26.0176L30.4644 25.2997C29.7518 25.1058 28.7354 25.3665 28.2141 25.8879L27.2631 26.839C23.8071 25.905 21.097 23.1943 20.1644 19.7383L21.1154 18.7872C21.6368 18.2657 21.8974 17.2504 21.7035 16.5378L20.987 13.9084C20.7932 13.197 20.061 12.4241 19.3615 12.1909L19.0616 12.09C18.3608 11.8568 17.3614 12.0927 16.8401 12.614L15.4176 14.0381C15.1634 14.291 15.001 15.0141 15.001 15.0168C14.9513 19.5339 16.7222 23.886 19.9169 27.0813C23.1037 30.2687 27.4387 32.0374 31.9419 31.9994C31.9655 31.9994 32.7094 31.8396 32.9636 31.5867L34.3861 30.1639C34.9074 29.6425 35.1432 28.643 34.91 27.9421Z" fill="black"/>
</svg>
